<svg width="30" height="30" viewBox="0 0 30 30" fill="none" xmlns="http://www.w3.org/2000/svg">
<path d="M3.75006 22.5001C3.75 22.4194 3.75 22.3361 3.75 22.2502V7.75024C3.75 6.35011 3.75 5.64953 4.02248 5.11475C4.26217 4.64434 4.64434 4.26217 5.11475 4.02248C5.64953 3.75 6.35011 3.75 7.75024 3.75H22.2502C23.6504 3.75 24.3501 3.75 24.8849 4.02248C25.3553 4.26217 25.7381 4.64434 25.9778 5.11475C26.25 5.649 26.25 6.34874 26.25 7.74614V22.2539C26.25 22.8601 26.25 23.3349 26.2278 23.7218M3.75006 22.5001C3.75103 23.7355 3.76671 24.3823 4.02248 24.8842C4.26217 25.3547 4.64434 25.7381 5.11475 25.9778C5.649 26.25 6.34874 26.25 7.74614 26.25H22.2545C23.6519 26.25 24.3506 26.25 24.8849 25.9778C25.3553 25.7381 25.7381 25.3547 25.9778 24.8842C26.1319 24.5818 26.1988 24.2266 26.2278 23.7218M3.75006 22.5001L9.70997 15.5469L9.71173 15.5449C10.2403 14.9282 10.5051 14.6194 10.8191 14.5081C11.0949 14.4103 11.3961 14.4125 11.6705 14.5142C11.9833 14.63 12.2438 14.9423 12.7649 15.5676L16.1038 19.5744C16.5862 20.1532 16.8288 20.4443 17.1233 20.5611C17.3831 20.6641 17.6696 20.6758 17.9376 20.5967C18.2427 20.5066 18.5113 20.238 19.0485 19.7009L19.6698 19.0796C20.2167 18.5327 20.4901 18.2595 20.7996 18.1702C21.0714 18.0917 21.362 18.1086 21.6235 18.2166C21.9213 18.3395 22.1627 18.6405 22.6459 19.2444L26.2278 23.7218M26.2278 23.7218L26.25 23.7495M18.75 11.25C18.0596 11.25 17.5 10.6904 17.5 10C17.5 9.30964 18.0596 8.75 18.75 8.75C19.4404 8.75 20 9.30964 20 10C20 10.6904 19.4404 11.25 18.75 11.25Z" stroke="#A2A9B0" stroke-linecap="round" stroke-linejoin="round"/>
</svg>
