<svg width="22" height="24" viewBox="0 0 22 24" fill="none" xmlns="http://www.w3.org/2000/svg">
<path d="M13.5 9.5V18.25M8.5 9.5V18.25M3.5 4.5V19.25C3.5 20.6501 3.5 21.3497 3.77248 21.8845C4.01217 22.3549 4.39434 22.7381 4.86475 22.9778C5.399 23.25 6.09874 23.25 7.49614 23.25H14.5039C15.9013 23.25 16.6 23.25 17.1342 22.9778C17.6046 22.7381 17.9881 22.3549 18.2278 21.8845C18.5 21.3502 18.5 20.6513 18.5 19.2539V4.5M3.5 4.5H6M3.5 4.5H1M6 4.5H16M6 4.5C6 3.33515 6 2.75301 6.1903 2.29358C6.44404 1.68101 6.9304 1.19404 7.54297 0.940301C8.0024 0.75 8.58515 0.75 9.75 0.75H12.25C13.4149 0.75 13.9973 0.75 14.4567 0.940301C15.0693 1.19404 15.5558 1.68101 15.8096 2.29358C15.9999 2.75301 16 3.33515 16 4.5M16 4.5H18.5M18.5 4.5H21" stroke="#FEFEFE" stroke-linecap="round" stroke-linejoin="round"/>
</svg>
