<svg width="30" height="30" viewBox="0 0 30 30" fill="none" xmlns="http://www.w3.org/2000/svg">
<path d="M2.91821 12.9208C2.52665 12.5587 2.73935 11.9041 3.26897 11.8413L10.7734 10.9512C10.9893 10.9256 11.1768 10.7901 11.2678 10.5927L14.4331 3.73046C14.6565 3.24616 15.345 3.24607 15.5684 3.73036L18.7336 10.5925C18.8247 10.7899 19.011 10.9258 19.2268 10.9514L26.7317 11.8413C27.2613 11.9041 27.4734 12.5589 27.0818 12.921L21.5342 18.0523C21.3746 18.1998 21.3036 18.4195 21.3459 18.6327L22.8183 26.0448C22.9222 26.5679 22.3655 26.9732 21.9001 26.7127L15.3059 23.0206C15.1163 22.9145 14.8858 22.915 14.6962 23.0211L8.10131 26.7118C7.63593 26.9723 7.07819 26.5679 7.18213 26.0448L8.65469 18.6332C8.69705 18.42 8.62618 18.1998 8.4666 18.0522L2.91821 12.9208Z" stroke="#121619" stroke-linecap="round" stroke-linejoin="round"/>
</svg>
