<svg width="36" height="34" viewBox="0 0 36 34" fill="none" xmlns="http://www.w3.org/2000/svg">
<path d="M9 10.1996V23.6369C9 25.5651 9 26.529 9.30618 27.119C9.87367 28.2125 11.1174 28.8409 12.3955 28.6803C13.0851 28.5937 13.9345 28.0589 15.6331 26.9893L15.6372 26.9868C16.3105 26.5628 16.6472 26.3508 16.9994 26.2333C17.6463 26.0173 18.3521 26.0173 18.999 26.2333C19.3519 26.3511 19.69 26.5639 20.366 26.9896C22.0647 28.0591 22.915 28.5934 23.6046 28.6801C24.8827 28.8407 26.1264 28.2125 26.6938 27.119C27 26.5291 27 25.5648 27 23.6369V10.195C27 8.61126 27 7.81822 26.6733 7.21273C26.3857 6.6796 25.9256 6.24647 25.3611 5.97483C24.7194 5.66602 23.8805 5.66602 22.2003 5.66602H13.8003C12.1201 5.66602 11.2794 5.66602 10.6377 5.97483C10.0732 6.24647 9.6146 6.6796 9.32698 7.21273C9 7.81881 9 8.61281 9 10.1996Z" stroke="#121619" stroke-linecap="round" stroke-linejoin="round"/>
</svg>
