<svg width="84" height="75" viewBox="0 0 84 75" fill="none" xmlns="http://www.w3.org/2000/svg">
<path fill-rule="evenodd" clip-rule="evenodd" d="M26.6655 1C28.9451 1 30.0057 1.00324 30.9959 1.24168C31.8853 1.45584 32.7344 1.81006 33.5152 2.28998C34.3834 2.82361 35.1353 3.57326 36.7462 5.18896L40.795 9.25H1.014C1.27233 4.6489 5.07363 1 9.72211 1H26.6655ZM37.4543 4.48292L42.2071 9.25H68.7436H68.7671C71.3297 9.25 73.2829 9.25 74.8407 9.3777C76.4091 9.50627 77.6207 9.76679 78.6894 10.313C80.5184 11.2477 82.0085 12.7382 82.9406 14.5731C83.4849 15.6446 83.7446 16.8597 83.8727 18.433C84 19.9957 84 21.955 84 24.5255V24.549V59.6991V59.7226C84 62.293 84 64.2524 83.8727 65.8151C83.7446 67.3883 83.4849 68.6035 82.9406 69.675C82.0086 71.5096 80.5177 73.0032 78.6885 73.938C77.6208 74.4837 76.4104 74.744 74.8443 74.8724C73.2887 75 71.3388 75 68.7812 75H68.7579H15.2411H15.2178C12.6602 75 10.7093 75 9.15289 74.8724C7.58587 74.744 6.37457 74.4837 5.3068 73.938C3.47691 73.0028 1.99103 71.5081 1.05937 69.6741C0.515103 68.6027 0.255452 67.3879 0.127295 65.8151C0 64.2528 0 62.2939 0 59.7234V59.7233V59.7V9.75C0 4.36665 4.35132 0 9.72211 0H26.6655H26.7431C28.9252 -3.61204e-05 30.1107 -5.62668e-05 31.23 0.269475C32.2227 0.508509 33.1694 0.90364 34.0389 1.43805C35.0199 2.04104 35.8575 2.88123 37.3996 4.42803L37.4543 4.48292ZM1 59.7V10.25H41.9995H68.7436C71.3344 10.25 73.2468 10.2504 74.7589 10.3744C76.2652 10.4978 77.3303 10.7414 78.2343 11.2034C79.8758 12.0423 81.2129 13.3799 82.0491 15.026C82.5099 15.9333 82.7529 17.0025 82.876 18.5142C82.9996 20.0316 83 21.9505 83 24.549V59.6991C83 62.2976 82.9996 64.2164 82.876 65.7339C82.7529 67.2455 82.5099 68.3148 82.0491 69.2221C81.2127 70.8684 79.8747 72.2088 78.2334 73.0476C77.3303 73.5091 76.2665 73.7524 74.7625 73.8758C73.2526 73.9996 71.3435 74 68.7579 74H15.2411C12.6555 74 10.7454 73.9996 9.23458 73.8758C7.7296 73.7524 6.66489 73.5091 5.76188 73.0476C4.12126 72.2091 2.78758 70.8681 1.95093 69.2212C1.49005 68.3139 1.24712 67.245 1.12399 65.7339C1.00039 64.2169 1 62.2985 1 59.7ZM42.5 59.5V45.5H27.5V44.5H42.5V29.5H43.5V44.5H57.5V45.5H43.5V59.5H42.5Z" fill="#A2A9B0"/>
</svg>
