<svg width="85" height="76" viewBox="0 0 85 76" fill="none" xmlns="http://www.w3.org/2000/svg">
<path d="M1 10.25V60.2C1 65.3805 1 67.9689 2.00515 69.9476C2.88931 71.6881 4.29909 73.106 6.03434 73.9928C8.00512 75 10.5864 75 15.7411 75H69.2579C74.4126 75 76.9902 75 78.9609 73.9928C80.6962 73.106 82.1107 71.689 82.9949 69.9485C84 67.9698 84 65.3796 84 60.1991V25.049C84 19.8685 84 17.2782 82.9949 15.2996C82.1107 13.5591 80.6971 12.145 78.9619 11.2582C76.9891 10.25 74.4085 10.25 69.2436 10.25H42.4995M1 10.25H42.4995M1 10.25C1 5.14137 5.12888 1 10.2221 1H27.1655C29.4212 1 30.5516 1 31.613 1.25558C32.554 1.48217 33.4519 1.85685 34.2771 2.36401C35.2074 2.93587 36.0063 3.73714 37.6003 5.33594L42.4995 10.25" stroke="#121619" stroke-linecap="round" stroke-linejoin="round"/>
</svg>
