<svg width="24" height="44" viewBox="0 0 24 44" fill="none" xmlns="http://www.w3.org/2000/svg">
<path d="M9.5 24C11.1569 24 12.5 25.3431 12.5 27C12.5 28.6568 11.1569 30 9.5 30C7.84315 30 6.5 28.6568 6.5 27C6.5 25.3431 7.84315 24 9.5 24Z" stroke="#FEFEFE"/>
<path d="M14.5 14C12.8431 14 11.5 15.3431 11.5 17C11.5 18.6568 12.8431 20 14.5 20C16.1569 20 17.5 18.6568 17.5 17C17.5 15.3431 16.1569 14 14.5 14Z" stroke="#FEFEFE"/>
<path d="M15 26.959L22 26.959" stroke="#FEFEFE" stroke-linecap="round"/>
<path d="M9 16.959L2 16.959" stroke="#FEFEFE" stroke-linecap="round"/>
<path d="M2 26.959L4 26.959" stroke="#FEFEFE" stroke-linecap="round"/>
<path d="M22 16.959L20 16.959" stroke="#FEFEFE" stroke-linecap="round"/>
</svg>
