<svg width="30" height="30" viewBox="0 0 30 30" fill="none" xmlns="http://www.w3.org/2000/svg">
<path d="M11.25 18.75H18.75M11.25 15H18.75M3.75 7.5V21C3.75 22.4001 3.75 23.0995 4.02248 23.6343C4.26217 24.1047 4.64434 24.4881 5.11475 24.7278C5.649 25 6.34874 25 7.74614 25H22.2546C23.652 25 24.3508 25 24.885 24.7278C25.3554 24.4881 25.7381 24.1051 25.9778 23.6347C26.2503 23.1 26.2503 22.3999 26.2503 20.9998L26.2503 11.4997C26.2503 10.0996 26.2503 9.39953 25.9778 8.86475C25.7381 8.39434 25.3546 8.01217 24.8842 7.77248C24.3495 7.5 23.6501 7.5 22.25 7.5H15M3.75 7.5H15M3.75 7.5C3.75 6.11929 4.86929 5 6.25 5H10.8431C11.4546 5 11.7614 5 12.0492 5.06908C12.3043 5.13032 12.5473 5.23158 12.771 5.36865C13.0232 5.52321 13.2398 5.73978 13.6719 6.17188L15 7.5" stroke="#FEFEFE" stroke-linecap="round" stroke-linejoin="round"/>
</svg>
