<svg width="30" height="30" viewBox="0 0 30 30" fill="none" xmlns="http://www.w3.org/2000/svg">
<path d="M18.75 13.75L13.75 18.75L11.25 16.25M3.75 7.5V21C3.75 22.4001 3.75 23.0997 4.02248 23.6345C4.26217 24.1049 4.64434 24.4881 5.11475 24.7278C5.649 25 6.34874 25 7.74613 25H22.2539C23.6513 25 24.35 25 24.8842 24.7278C25.3546 24.4881 25.7381 24.1051 25.9778 23.6347C26.2503 23.1 26.2503 22.3999 26.2503 20.9998L26.2503 11.4997C26.2503 10.0996 26.2503 9.39953 25.9778 8.86475C25.7381 8.39434 25.3549 8.01217 24.8845 7.77248C24.3497 7.5 23.6501 7.5 22.25 7.5H15M3.75 7.5H15M3.75 7.5C3.75 6.11929 4.86929 5 6.25 5H10.8431C11.4546 5 11.7611 5 12.0488 5.06908C12.3039 5.13032 12.5473 5.23158 12.771 5.36865C13.0232 5.52321 13.2398 5.73977 13.6719 6.17188L15 7.5" stroke="#121619" stroke-linecap="round" stroke-linejoin="round"/>
</svg>
