<svg width="25" height="24" viewBox="0 0 25 24" fill="none" xmlns="http://www.w3.org/2000/svg">
<path d="M7.5 12C7.5 14.7614 9.73858 17 12.5 17C15.2614 17 17.5 14.7614 17.5 12C17.5 9.23858 15.2614 7 12.5 7C9.73858 7 7.5 9.23858 7.5 12Z" fill="#003D6D"/>
<path d="M12.5 4V2M12.5 20V22M6.91421 6.41421L5.5 5M18.228 17.728L19.6422 19.1422M4.5 12H2.5M20.5 12H22.5M18.2285 6.41421L19.6427 5M6.9147 17.728L5.50049 19.1422M12.5 17C9.73858 17 7.5 14.7614 7.5 12C7.5 9.23858 9.73858 7 12.5 7C15.2614 7 17.5 9.23858 17.5 12C17.5 14.7614 15.2614 17 12.5 17Z" stroke="#003D6D" stroke-linecap="round" stroke-linejoin="round"/>
</svg>
