<svg width="146" height="52" viewBox="0 0 146 52" fill="none" xmlns="http://www.w3.org/2000/svg">
<path d="M17.98 7.68C15.8867 7.61333 13.8533 7.57333 11.88 7.56V18H6.88V7.56C4.89333 7.57333 2.86667 7.61333 0.8 7.68V3.48H17.98V7.68ZM27.3891 18C27.4691 16.04 27.5091 14.2333 27.5091 12.58C27.5091 11.9933 27.3624 11.5267 27.0691 11.18C26.7891 10.8333 26.4291 10.66 25.9891 10.66C25.5224 10.66 25.1224 10.8867 24.7891 11.34C24.4691 11.7933 24.3091 12.4133 24.3091 13.2L24.2891 13.16C24.2891 15.3333 24.3157 16.9467 24.3691 18H19.5891C19.6957 16.08 19.7491 13.48 19.7491 10.2C19.7491 6.92 19.6957 4.32 19.5891 2.4H24.3491L24.3691 8.56L24.3491 9.62C24.6691 8.68667 25.1424 8 25.7691 7.56C26.4091 7.10667 27.1291 6.88 27.9291 6.88C28.7291 6.88 29.4224 7.06 30.0091 7.42C30.5957 7.76667 31.0357 8.24 31.3291 8.84C31.6357 9.44 31.7891 10.1133 31.7891 10.86V13.74C31.7891 15.5133 31.8224 16.9333 31.8891 18H27.3891ZM36.1753 5.9C35.3353 5.9 34.7086 5.69333 34.2953 5.28C33.8953 4.86667 33.6953 4.32667 33.6953 3.66C33.6953 3.00667 33.8953 2.46667 34.2953 2.04C34.7086 1.61333 35.3353 1.4 36.1753 1.4C36.9753 1.4 37.5886 1.62 38.0153 2.06C38.442 2.48667 38.6553 3.02 38.6553 3.66C38.6553 4.32667 38.4486 4.86667 38.0353 5.28C37.622 5.69333 37.002 5.9 36.1753 5.9ZM33.8553 18C33.9486 15.8533 33.9953 14.08 33.9953 12.68C33.9953 11.0133 33.942 9.14667 33.8353 7.08H38.6353C38.5286 9.06667 38.4753 10.9333 38.4753 12.68C38.4753 14.1467 38.522 15.92 38.6153 18H33.8553ZM46.9084 18.2C45.7884 18.2 44.6484 18.0467 43.4884 17.74C42.3418 17.42 41.2618 16.94 40.2484 16.3L42.3484 13.44C42.9618 13.88 43.7018 14.2267 44.5684 14.48C45.4351 14.72 46.1818 14.84 46.8084 14.84C47.4084 14.84 47.8684 14.76 48.1884 14.6C48.5218 14.4267 48.6884 14.2067 48.6884 13.94C48.6884 13.7267 48.6084 13.56 48.4484 13.44C48.2884 13.32 48.0684 13.26 47.7884 13.26C47.6151 13.26 47.4151 13.2667 47.1884 13.28C46.9751 13.2933 46.8018 13.3067 46.6684 13.32C45.9751 13.4 45.2618 13.44 44.5284 13.44C43.3418 13.44 42.3751 13.22 41.6284 12.78C40.8951 12.3267 40.5284 11.5933 40.5284 10.58C40.5284 9.40667 41.0818 8.5 42.1884 7.86C43.2951 7.20667 44.9218 6.88 47.0684 6.88C48.1218 6.88 49.1818 7.03333 50.2484 7.34C51.3284 7.63333 52.2818 8.08 53.1084 8.68L50.8084 11C50.0484 10.6 49.3351 10.32 48.6684 10.16C48.0151 9.98667 47.3551 9.9 46.6884 9.9C46.2218 9.9 45.8218 9.99333 45.4884 10.18C45.1551 10.3667 44.9884 10.58 44.9884 10.82C44.9884 11.0067 45.0551 11.1533 45.1884 11.26C45.3351 11.3667 45.5218 11.42 45.7484 11.42C45.9751 11.42 46.2884 11.4 46.6884 11.36C47.6618 11.2933 48.3884 11.26 48.8684 11.26C50.2551 11.26 51.3284 11.4933 52.0884 11.96C52.8484 12.4267 53.2284 13.14 53.2284 14.1C53.2284 15.54 52.6684 16.5867 51.5484 17.24C50.4284 17.88 48.8818 18.2 46.9084 18.2ZM61.312 5.9C60.472 5.9 59.8454 5.69333 59.432 5.28C59.032 4.86667 58.832 4.32667 58.832 3.66C58.832 3.00667 59.032 2.46667 59.432 2.04C59.8454 1.61333 60.472 1.4 61.312 1.4C62.112 1.4 62.7254 1.62 63.152 2.06C63.5787 2.48667 63.792 3.02 63.792 3.66C63.792 4.32667 63.5854 4.86667 63.172 5.28C62.7587 5.69333 62.1387 5.9 61.312 5.9ZM58.992 18C59.0854 15.8533 59.132 14.08 59.132 12.68C59.132 11.0133 59.0787 9.14667 58.972 7.08H63.772C63.6654 9.06667 63.612 10.9333 63.612 12.68C63.612 14.1467 63.6587 15.92 63.752 18H58.992ZM72.0452 18.2C70.9252 18.2 69.7852 18.0467 68.6252 17.74C67.4785 17.42 66.3985 16.94 65.3852 16.3L67.4852 13.44C68.0985 13.88 68.8385 14.2267 69.7052 14.48C70.5718 14.72 71.3185 14.84 71.9452 14.84C72.5452 14.84 73.0052 14.76 73.3252 14.6C73.6585 14.4267 73.8252 14.2067 73.8252 13.94C73.8252 13.7267 73.7452 13.56 73.5852 13.44C73.4252 13.32 73.2052 13.26 72.9252 13.26C72.7518 13.26 72.5518 13.2667 72.3252 13.28C72.1118 13.2933 71.9385 13.3067 71.8052 13.32C71.1118 13.4 70.3985 13.44 69.6652 13.44C68.4785 13.44 67.5118 13.22 66.7652 12.78C66.0318 12.3267 65.6652 11.5933 65.6652 10.58C65.6652 9.40667 66.2185 8.5 67.3252 7.86C68.4318 7.20667 70.0585 6.88 72.2052 6.88C73.2585 6.88 74.3185 7.03333 75.3852 7.34C76.4652 7.63333 77.4185 8.08 78.2452 8.68L75.9452 11C75.1852 10.6 74.4718 10.32 73.8052 10.16C73.1518 9.98667 72.4918 9.9 71.8252 9.9C71.3585 9.9 70.9585 9.99333 70.6252 10.18C70.2918 10.3667 70.1252 10.58 70.1252 10.82C70.1252 11.0067 70.1918 11.1533 70.3252 11.26C70.4718 11.3667 70.6585 11.42 70.8852 11.42C71.1118 11.42 71.4252 11.4 71.8252 11.36C72.7985 11.2933 73.5252 11.26 74.0052 11.26C75.3918 11.26 76.4652 11.4933 77.2252 11.96C77.9852 12.4267 78.3652 13.14 78.3652 14.1C78.3652 15.54 77.8052 16.5867 76.6852 17.24C75.5652 17.88 74.0185 18.2 72.0452 18.2Z" fill="#FEFEFE"/>
<path d="M23.2559 33.84L32.0159 45H23.3459L19.0259 39.12L14.6759 45H6.00586L14.7659 33.84L6.30586 23.22H14.9759L19.0259 28.62L23.0459 23.22H31.7159L23.2559 33.84ZM43.2623 45.3C39.8423 45.3 37.3223 44.52 35.7023 42.96C34.1023 41.38 33.3023 39.31 33.3023 36.75C33.3023 34.25 34.1023 32.22 35.7023 30.66C37.3223 29.1 39.8423 28.32 43.2623 28.32C45.5623 28.32 47.4823 28.7 49.0223 29.46C50.5823 30.2 51.7323 31.21 52.4723 32.49C53.2123 33.75 53.5823 35.17 53.5823 36.75C53.5823 39.33 52.7223 41.4 51.0023 42.96C49.3023 44.52 46.7223 45.3 43.2623 45.3ZM43.3823 40.2C44.6823 40.2 45.6523 39.89 46.2923 39.27C46.9323 38.65 47.2523 37.82 47.2523 36.78C47.2523 35.8 46.9323 35 46.2923 34.38C45.6523 33.74 44.6823 33.42 43.3823 33.42C42.0823 33.42 41.1323 33.73 40.5323 34.35C39.9323 34.97 39.6323 35.78 39.6323 36.78C39.6323 37.82 39.9323 38.65 40.5323 39.27C41.1323 39.89 42.0823 40.2 43.3823 40.2ZM68.8022 28.32C70.1022 28.32 71.2722 28.69 72.3122 29.43C73.3522 30.17 74.1622 31.18 74.7422 32.46C75.3222 33.72 75.6122 35.11 75.6122 36.63C75.6122 38.13 75.3222 39.55 74.7422 40.89C74.1622 42.21 73.3422 43.28 72.2822 44.1C71.2422 44.9 70.0522 45.3 68.7122 45.3C67.1522 45.3 65.8122 44.98 64.6922 44.34C63.5922 43.68 62.7722 42.67 62.2322 41.31C62.2322 42.45 62.2722 44.28 62.3522 46.8C62.4322 49.24 62.4722 50.96 62.4722 51.96H55.6922C55.8122 48.24 55.8722 44.35 55.8722 40.29C55.8722 36.23 55.8122 32.34 55.6922 28.62H61.4522L62.3222 32.37C62.8822 30.97 63.7222 29.95 64.8422 29.31C65.9622 28.65 67.2822 28.32 68.8022 28.32ZM65.5922 39.9C66.4922 39.9 67.2422 39.62 67.8422 39.06C68.4622 38.48 68.7722 37.73 68.7722 36.81C68.7722 35.79 68.4922 34.96 67.9322 34.32C67.3722 33.68 66.6122 33.36 65.6522 33.36C64.5522 33.36 63.7222 33.63 63.1622 34.17C62.6022 34.69 62.3222 35.57 62.3222 36.81C62.3222 37.51 62.5022 38.1 62.8622 38.58C63.2222 39.04 63.6522 39.38 64.1522 39.6C64.6522 39.8 65.1322 39.9 65.5922 39.9ZM87.3834 45.3C83.9634 45.3 81.4434 44.52 79.8234 42.96C78.2234 41.38 77.4234 39.31 77.4234 36.75C77.4234 34.25 78.2234 32.22 79.8234 30.66C81.4434 29.1 83.9634 28.32 87.3834 28.32C89.6834 28.32 91.6034 28.7 93.1434 29.46C94.7034 30.2 95.8534 31.21 96.5934 32.49C97.3334 33.75 97.7034 35.17 97.7034 36.75C97.7034 39.33 96.8434 41.4 95.1234 42.96C93.4234 44.52 90.8434 45.3 87.3834 45.3ZM87.5034 40.2C88.8034 40.2 89.7734 39.89 90.4134 39.27C91.0534 38.65 91.3734 37.82 91.3734 36.78C91.3734 35.8 91.0534 35 90.4134 34.38C89.7734 33.74 88.8034 33.42 87.5034 33.42C86.2034 33.42 85.2534 33.73 84.6534 34.35C84.0534 34.97 83.7534 35.78 83.7534 36.78C83.7534 37.82 84.0534 38.65 84.6534 39.27C85.2534 39.89 86.2034 40.2 87.5034 40.2ZM122.073 28.62C121.973 31.66 121.923 34.39 121.923 36.81C121.923 39.23 121.973 41.96 122.073 45H99.8133C99.9133 42.72 99.9633 39.99 99.9633 36.81C99.9633 33.63 99.9133 30.9 99.8133 28.62H105.993V39.54H108.303V28.62H113.613V39.54H115.893V28.62H122.073ZM134.141 45.3C130.721 45.3 128.201 44.52 126.581 42.96C124.981 41.38 124.181 39.31 124.181 36.75C124.181 34.25 124.981 32.22 126.581 30.66C128.201 29.1 130.721 28.32 134.141 28.32C136.441 28.32 138.361 28.7 139.901 29.46C141.461 30.2 142.611 31.21 143.351 32.49C144.091 33.75 144.461 35.17 144.461 36.75C144.461 39.33 143.601 41.4 141.881 42.96C140.181 44.52 137.601 45.3 134.141 45.3ZM134.261 40.2C135.561 40.2 136.531 39.89 137.171 39.27C137.811 38.65 138.131 37.82 138.131 36.78C138.131 35.8 137.811 35 137.171 34.38C136.531 33.74 135.561 33.42 134.261 33.42C132.961 33.42 132.011 33.73 131.411 34.35C130.811 34.97 130.511 35.78 130.511 36.78C130.511 37.82 130.811 38.65 131.411 39.27C132.011 39.89 132.961 40.2 134.261 40.2Z" fill="#FEFEFE"/>
</svg>
