<svg width="30" height="30" viewBox="0 0 30 30" fill="none" xmlns="http://www.w3.org/2000/svg">
<path d="M7.5 9.00024V20.8567C7.5 22.558 7.5 23.4085 7.75515 23.9291C8.22806 24.8939 9.26447 25.4485 10.3296 25.3067C10.9043 25.2303 11.612 24.7584 13.0276 23.8147L13.031 23.8124C13.5921 23.4384 13.8727 23.2513 14.1662 23.1476C14.7053 22.957 15.2934 22.957 15.8325 23.1476C16.1266 23.2515 16.4083 23.4393 16.9716 23.8149C18.3872 24.7586 19.0958 25.2301 19.6705 25.3065C20.7356 25.4483 21.772 24.8939 22.2449 23.9291C22.5 23.4086 22.5 22.5577 22.5 20.8567V8.99614C22.5 7.59874 22.5 6.899 22.2278 6.36475C21.9881 5.89434 21.6046 5.51217 21.1342 5.27248C20.5995 5 19.9004 5 18.5002 5H11.5002C10.1001 5 9.39953 5 8.86475 5.27248C8.39434 5.51217 8.01217 5.89434 7.77248 6.36475C7.5 6.89953 7.5 7.60011 7.5 9.00024Z" stroke="#A2A9B0" stroke-linecap="round" stroke-linejoin="round"/>
</svg>
