<svg width="30" height="30" viewBox="0 0 30 30" fill="none" xmlns="http://www.w3.org/2000/svg">
<path d="M12.4998 20H6.24976V26.25M17.4998 10H23.7498V3.75M5.72852 11.2543C6.42937 9.51958 7.6028 8.0163 9.11544 6.91528C10.6281 5.81427 12.4208 5.1594 14.2869 5.02563C16.1531 4.89187 18.0182 5.28425 19.6724 6.15827C21.3266 7.03228 22.7013 8.35317 23.6424 9.97015M24.2717 18.7463C23.5708 20.481 22.3974 21.9843 20.8848 23.0853C19.3721 24.1863 17.5812 24.8404 15.7151 24.9741C13.849 25.1079 11.9823 24.7156 10.3281 23.8416C8.67391 22.9675 7.29828 21.6469 6.35718 20.0299" stroke="#FEFEFE" stroke-width="2" stroke-linecap="round" stroke-linejoin="round"/>
</svg>
