<svg width="30" height="30" viewBox="0 0 30 30" fill="none" xmlns="http://www.w3.org/2000/svg">
<path d="M25.4365 11.1532L24.9787 10.8985C24.9076 10.859 24.8726 10.8391 24.8383 10.8186C24.4969 10.6141 24.2092 10.3316 23.9993 9.99355C23.9781 9.95954 23.9582 9.92387 23.9175 9.85338C23.8768 9.78298 23.8562 9.7473 23.8373 9.71199C23.649 9.36034 23.5471 8.96845 23.541 8.56959C23.5404 8.52949 23.5405 8.48852 23.5419 8.40707L23.5509 7.87549C23.5652 7.02483 23.5724 6.59818 23.4528 6.21528C23.3466 5.87518 23.169 5.56192 22.9318 5.29608C22.6636 4.99557 22.2924 4.78119 21.5493 4.35297L20.9321 3.99727C20.191 3.57024 19.8204 3.35665 19.4269 3.27522C19.0789 3.20318 18.7197 3.20652 18.3729 3.28438C17.9815 3.37225 17.6155 3.5914 16.8839 4.02946L16.8797 4.03145L16.4374 4.29627C16.3675 4.33815 16.3321 4.35926 16.297 4.37874C15.9492 4.57214 15.5609 4.67908 15.1631 4.69185C15.123 4.69313 15.0822 4.69313 15.0007 4.69313C14.9196 4.69313 14.8771 4.69313 14.8371 4.69185C14.4384 4.67902 14.0493 4.5715 13.7009 4.37731C13.6658 4.35773 13.6311 4.33646 13.561 4.29439L13.1159 4.02717C12.3793 3.58497 12.0105 3.36353 11.6169 3.27522C11.2687 3.19709 10.9082 3.19493 10.5589 3.2679C10.1645 3.35028 9.79373 3.56546 9.05225 3.9958L9.04895 3.99727L8.43938 4.35106L8.43263 4.35519C7.69783 4.78166 7.32954 4.99541 7.06364 5.29468C6.82769 5.56026 6.65133 5.87303 6.54577 6.21223C6.42645 6.59565 6.43281 7.02321 6.44719 7.87788L6.45612 8.40871C6.45747 8.48909 6.45982 8.52903 6.45923 8.56857C6.45332 8.96825 6.3501 9.36093 6.1612 9.71321C6.14252 9.74805 6.1224 9.78289 6.0822 9.85248C6.04197 9.92212 6.02249 9.95675 6.00163 9.99036C5.79073 10.3302 5.5017 10.6143 5.15819 10.8192C5.12421 10.8394 5.0884 10.8589 5.01804 10.8979L4.56609 11.1484C3.81413 11.5651 3.43824 11.7736 3.16472 12.0704C2.92275 12.3329 2.73996 12.6443 2.62839 12.9835C2.50226 13.3668 2.50237 13.7967 2.50432 14.6564L2.50591 15.3591C2.50785 16.2131 2.51051 16.6398 2.63692 17.0205C2.74876 17.3574 2.93021 17.667 3.17082 17.9279C3.44279 18.2229 3.81495 18.4301 4.5612 18.8453L5.00913 19.0945C5.08536 19.1369 5.12372 19.1578 5.16048 19.18C5.50087 19.3849 5.78764 19.6683 5.99675 20.0062C6.01934 20.0427 6.04103 20.0806 6.08439 20.1563C6.12722 20.2312 6.14914 20.2686 6.16895 20.3061C6.35228 20.6532 6.45045 21.0389 6.45714 21.4313C6.45786 21.4738 6.45724 21.5167 6.45579 21.6029L6.44719 22.1123C6.43271 22.9699 6.4264 23.3992 6.54643 23.7836C6.65261 24.1238 6.83008 24.437 7.06731 24.7028C7.33546 25.0034 7.70721 25.2176 8.45036 25.6458L9.0675 26.0014C9.80856 26.4285 10.179 26.6418 10.5724 26.7232C10.9204 26.7953 11.2798 26.7925 11.6266 26.7146C12.0186 26.6266 12.3859 26.4067 13.1196 25.9674L13.5618 25.7026C13.6318 25.6607 13.6672 25.6397 13.7023 25.6202C14.0501 25.4268 14.4381 25.3193 14.8359 25.3065C14.876 25.3053 14.9167 25.3053 14.9983 25.3053C15.08 25.3053 15.1208 25.3053 15.1609 25.3065C15.5596 25.3194 15.9499 25.4272 16.2983 25.6214C16.3289 25.6385 16.3596 25.657 16.4136 25.6894L16.8837 25.9716C17.6204 26.4139 17.9885 26.6347 18.3821 26.723C18.7303 26.8011 19.091 26.8043 19.4404 26.7313C19.8347 26.649 20.2062 26.4334 20.9472 26.0033L21.566 25.6442C22.3013 25.2174 22.6699 25.0034 22.9359 24.7041C23.1719 24.4385 23.3485 24.1259 23.454 23.7866C23.5725 23.406 23.5653 22.9817 23.5512 22.1394L23.5419 21.59C23.5406 21.5097 23.5404 21.4697 23.541 21.4301C23.5469 21.0304 23.6484 20.6375 23.8373 20.2852C23.856 20.2504 23.8763 20.2153 23.9163 20.1459C23.9565 20.0763 23.9774 20.0416 23.9982 20.008C24.2091 19.6682 24.4985 19.3838 24.842 19.1789C24.8755 19.1589 24.9101 19.1398 24.9788 19.1017L24.9811 19.1006L25.4331 18.8502C26.185 18.4335 26.5617 18.2247 26.8352 17.9279C27.0771 17.6654 27.2597 17.3544 27.3713 17.0153C27.4966 16.6341 27.4957 16.2068 27.4937 15.3571L27.4921 14.6394C27.4902 13.7854 27.4891 13.3588 27.3627 12.978C27.2509 12.6411 27.0684 12.3315 26.8278 12.0706C26.5561 11.7759 26.1834 11.5686 25.4386 11.1542L25.4365 11.1532Z" stroke="#121619" stroke-linecap="round" stroke-linejoin="round"/>
<path d="M9.99944 14.9995C9.99944 17.7609 12.238 19.9995 14.9994 19.9995C17.7609 19.9995 19.9994 17.7609 19.9994 14.9995C19.9994 12.238 17.7609 9.99946 14.9994 9.99946C12.238 9.99946 9.99944 12.238 9.99944 14.9995Z" stroke="#121619" stroke-linecap="round" stroke-linejoin="round"/>
</svg>
