<svg width="30" height="30" viewBox="0 0 30 30" fill="none" xmlns="http://www.w3.org/2000/svg">
<path d="M21.5208 24.1653C19.9186 22.376 17.5908 21.25 15 21.25C12.4092 21.25 10.0812 22.376 8.479 24.1653M15 26.25C8.7868 26.25 3.75 21.2132 3.75 15C3.75 8.7868 8.7868 3.75 15 3.75C21.2132 3.75 26.25 8.7868 26.25 15C26.25 21.2132 21.2132 26.25 15 26.25ZM15 17.5C12.9289 17.5 11.25 15.8211 11.25 13.75C11.25 11.6789 12.9289 10 15 10C17.0711 10 18.75 11.6789 18.75 13.75C18.75 15.8211 17.0711 17.5 15 17.5Z" stroke="#121619" stroke-linecap="round" stroke-linejoin="round"/>
</svg>
