<svg width="115" height="115" viewBox="0 0 115 115" fill="none" xmlns="http://www.w3.org/2000/svg">
<circle cx="57.5" cy="57.5" r="57.5" fill="#00539A"/>
<path d="M78.3665 86.3291C73.2397 80.6032 65.7906 77 57.5 77C49.2094 77 41.7597 80.6032 36.6328 86.3291M57.5 93C37.6177 93 21.5 76.8823 21.5 57C21.5 37.1177 37.6177 21 57.5 21C77.3823 21 93.5 37.1177 93.5 57C93.5 76.8823 77.3823 93 57.5 93ZM57.5 65C50.8726 65 45.5 59.6274 45.5 53C45.5 46.3726 50.8726 41 57.5 41C64.1274 41 69.5 46.3726 69.5 53C69.5 59.6274 64.1274 65 57.5 65Z" stroke="#FEFEFE" stroke-linecap="round" stroke-linejoin="round"/>
</svg>
