<svg width="30" height="30" viewBox="0 0 30 30" fill="none" xmlns="http://www.w3.org/2000/svg">
<path d="M12.8847 17.1152L18.9424 11.0575M25.1391 7.3606L20.0258 23.9788C19.5676 25.4681 19.3383 26.2131 18.9431 26.4601C18.6002 26.6743 18.1758 26.7101 17.8024 26.5552C17.3719 26.3765 17.0225 25.6789 16.3254 24.2848L13.0867 17.8074C12.9761 17.5861 12.9208 17.476 12.8469 17.3801C12.7813 17.2951 12.7056 17.2184 12.6206 17.1529C12.5269 17.0807 12.4186 17.0265 12.2072 16.9208L5.7149 13.6747C4.32077 12.9776 3.62364 12.6288 3.44501 12.1982C3.29008 11.8249 3.32542 11.4 3.53961 11.0572C3.7866 10.6619 4.53154 10.4323 6.0213 9.9739L22.6395 4.8606C23.8107 4.50023 24.3966 4.32019 24.7922 4.46542C25.1368 4.59192 25.4084 4.86331 25.5349 5.20789C25.6801 5.60329 25.4999 6.18884 25.1399 7.35887L25.1391 7.3606Z" stroke="#FEFEFE" stroke-linecap="round" stroke-linejoin="round"/>
</svg>
