<svg width="30" height="30" viewBox="0 0 30 30" fill="none" xmlns="http://www.w3.org/2000/svg">
<path d="M12.8847 17.1154L18.9424 11.0577M25.1391 7.36084L20.0258 23.9791C19.5676 25.4684 19.3383 26.2134 18.9431 26.4603C18.6002 26.6745 18.1758 26.7103 17.8024 26.5554C17.3719 26.3768 17.0225 25.6791 16.3254 24.285L13.0867 17.8076C12.9761 17.5864 12.9208 17.4762 12.8469 17.3804C12.7813 17.2953 12.7056 17.2187 12.6206 17.1531C12.5269 17.0809 12.4186 17.0268 12.2072 16.9211L5.7149 13.6749C4.32077 12.9779 3.62364 12.629 3.44501 12.1985C3.29008 11.8251 3.32542 11.4003 3.53961 11.0575C3.7866 10.6622 4.53154 10.4325 6.0213 9.97414L22.6395 4.86084C23.8107 4.50047 24.3966 4.32043 24.7922 4.46566C25.1368 4.59216 25.4084 4.86355 25.5349 5.20813C25.6801 5.60354 25.4999 6.18908 25.1399 7.35911L25.1391 7.36084Z" stroke="#A2A9B0" stroke-linecap="round" stroke-linejoin="round"/>
</svg>
